<svg width="42" height="42" viewBox="0 0 42 42" fill="none" xmlns="http://www.w3.org/2000/svg">
<rect width="42" height="42" rx="21" fill="white" fill-opacity="0.07" style="mix-blend-mode:screen"/>
<path d="M23.9072 26.5385V27.2308C23.9072 27.9652 23.6009 28.6696 23.0558 29.1889C22.5107 29.7082 21.7714 30 21.0005 30C20.2297 30 19.4903 29.7082 18.9452 29.1889C18.4001 28.6696 18.0939 27.9652 18.0939 27.2308V26.5385M28.7976 25.1292C27.6313 23.7692 26.8079 23.0769 26.8079 19.3276C26.8079 15.8942 24.9676 14.671 23.453 14.0769C23.2518 13.9982 23.0624 13.8173 23.0011 13.6204C22.7354 12.7589 21.9906 12 21.0005 12C20.0105 12 19.2652 12.7594 19.0022 13.6213C18.9409 13.8203 18.7515 13.9982 18.5503 14.0769C17.0339 14.6719 15.1955 15.8908 15.1955 19.3276C15.1932 23.0769 14.3698 23.7692 13.2035 25.1292C12.7203 25.6925 13.1436 26.5385 13.9888 26.5385H28.0169C28.8575 26.5385 29.2781 25.69 28.7976 25.1292Z" stroke="#0066FF" stroke-width="1.3" stroke-linecap="round" stroke-linejoin="round"/>
</svg>
