<svg width="42" height="42" viewBox="0 0 42 42" fill="none" xmlns="http://www.w3.org/2000/svg">
<rect width="42" height="42" rx="21" fill="white" fill-opacity="0.27" style="mix-blend-mode:screen"/>
<path d="M26.7309 21.2888C26.4211 23.7623 24.731 24.7506 24.0011 25.4681C23.2701 26.1877 23.4011 26.3309 23.4502 27.3862C23.4584 27.5168 23.4386 27.6476 23.392 27.7705C23.3455 27.8935 23.2732 28.006 23.1795 28.1011C23.0859 28.1963 22.9729 28.272 22.8476 28.3237C22.7223 28.3754 22.5872 28.402 22.4508 28.4018H19.5508C19.4144 28.4015 19.2795 28.3747 19.1543 28.3228C19.0292 28.271 18.9163 28.1952 18.8227 28.1002C18.7291 28.0052 18.6567 27.8929 18.6098 27.7701C18.563 27.6473 18.5427 27.5167 18.5503 27.3862C18.5503 26.3508 18.6506 26.1103 18.0004 25.4681C17.1712 24.6733 15.2204 23.551 15.2204 20.4647C15.2154 19.6981 15.3762 18.9388 15.6925 18.2347C16.0088 17.5306 16.4739 16.8969 17.0584 16.3737C17.6429 15.8504 18.3342 15.4489 19.0886 15.1944C19.843 14.94 20.6442 14.8381 21.4417 14.8952C22.2393 14.9523 23.0158 15.1671 23.7224 15.5262C24.429 15.8853 25.0504 16.3808 25.5473 16.9815C26.0442 17.5821 26.4059 18.275 26.6097 19.0163C26.8134 19.7577 26.8547 20.5314 26.7309 21.2888Z" stroke="#0066FF" stroke-width="1.1" stroke-linecap="round" stroke-linejoin="round"/>
<path d="M19.3192 28.3446V29.9259C19.3192 30.3579 19.5702 30.7124 19.8789 30.7124H22.1189C22.4298 30.7124 22.6797 30.3568 22.6797 29.9259V28.3446M20.1484 17.3212C19.5042 17.3215 18.8865 17.567 18.431 18.0038C17.9756 18.4405 17.7198 19.0328 17.7198 19.6503M28.999 20.6763H31M26.9849 14.3886L28.4044 13.0279M28.076 26.006L29.4954 27.3656M20.9995 10.7124V12.2634M13.624 13.0269L15.0336 14.3886M12.5329 27.3656L13.9426 26.006M12.9999 20.6763H11" stroke="#0066FF" stroke-width="1.1" stroke-linecap="round" stroke-linejoin="round"/>
</svg>
