<svg width="42" height="42" viewBox="0 0 42 42" fill="none" xmlns="http://www.w3.org/2000/svg">
<rect width="42" height="42" rx="21" fill="white" fill-opacity="0.07" style="mix-blend-mode:screen"/>
<path d="M13.801 23.55V16.75C13.801 15.1469 13.801 14.3462 14.3284 13.8481C14.8557 13.35 15.7035 13.35 17.4008 13.35H18.3007M28.2 23.55V20.575M27.7501 14.3241L27.8068 14.2858C28.7589 13.6364 29.235 13.3118 29.6174 13.469C29.9999 13.6263 29.9999 14.1447 29.9999 15.1843V15.7657C29.9999 16.8053 29.9999 17.3246 29.6174 17.481C29.235 17.6383 28.7589 17.3136 27.8068 16.665L27.7501 16.6259M13.3493 24.4127L13.819 23.55H28.1568L28.6518 24.4127C29.9504 26.6754 30.2744 27.8068 29.7803 28.6534C29.2863 29.5 27.9787 29.5 25.3616 29.5H16.6394C14.0215 29.5 12.713 29.5 12.2198 28.6534C11.7258 27.8068 12.0497 26.6754 13.3493 24.4127ZM24.1503 18.45H24.6003C26.0852 18.45 26.8276 18.45 27.2884 18.0692C27.7501 17.6876 27.7501 17.0747 27.7501 15.8473V15.1036C27.7501 13.8762 27.7501 13.2624 27.2884 12.8808C26.8276 12.5 26.0852 12.5 24.6003 12.5H24.1503C22.6654 12.5 21.923 12.5 21.4622 12.8808C21.0005 13.2624 21.0005 13.8753 21.0005 15.1036V15.8473C21.0005 17.0739 21.0005 17.6876 21.4622 18.0692C21.923 18.45 22.6654 18.45 24.1503 18.45Z" stroke="#0066FF" stroke-width="1.3" stroke-linecap="round" stroke-linejoin="round"/>
</svg>
