<svg width="42" height="42" viewBox="0 0 42 42" fill="none" xmlns="http://www.w3.org/2000/svg">
<rect width="42" height="42" rx="21" fill="white" fill-opacity="0.07" style="mix-blend-mode:screen"/>
<path d="M21 23.7C22.4912 23.7 23.7 22.4912 23.7 21C23.7 19.5088 22.4912 18.3 21 18.3C19.5088 18.3 18.3 19.5088 18.3 21C18.3 22.4912 19.5088 23.7 21 23.7Z" stroke="#0066FF" stroke-width="1.3" stroke-linecap="round" stroke-linejoin="round"/>
<path d="M27.0545 23.4545C26.9456 23.7013 26.9131 23.9751 26.9613 24.2405C27.0094 24.5059 27.1359 24.7508 27.3245 24.9436L27.3736 24.9927C27.5258 25.1447 27.6465 25.3252 27.7288 25.5238C27.8112 25.7225 27.8536 25.9354 27.8536 26.1505C27.8536 26.3655 27.8112 26.5784 27.7288 26.7771C27.6465 26.9757 27.5258 27.1562 27.3736 27.3082C27.2217 27.4603 27.0412 27.581 26.8425 27.6634C26.6439 27.7457 26.431 27.7881 26.2159 27.7881C26.0009 27.7881 25.7879 27.7457 25.5893 27.6634C25.3906 27.581 25.2102 27.4603 25.0582 27.3082L25.0091 27.2591C24.8163 27.0705 24.5714 26.9439 24.3059 26.8958C24.0405 26.8477 23.7668 26.8802 23.52 26.9891C23.278 27.0928 23.0716 27.265 22.9263 27.4845C22.7809 27.704 22.7029 27.9613 22.7018 28.2245V28.3636C22.7018 28.7976 22.5294 29.2138 22.2225 29.5207C21.9157 29.8276 21.4994 30 21.0655 30C20.6315 30 20.2152 29.8276 19.9084 29.5207C19.6015 29.2138 19.4291 28.7976 19.4291 28.3636V28.29C19.4228 28.0192 19.3351 27.7565 19.1775 27.5362C19.0199 27.3159 18.7997 27.1481 18.5455 27.0545C18.2987 26.9456 18.0249 26.9131 17.7595 26.9613C17.4941 27.0094 17.2492 27.1359 17.0564 27.3245L17.0073 27.3736C16.8553 27.5258 16.6748 27.6465 16.4762 27.7288C16.2775 27.8112 16.0646 27.8536 15.8495 27.8536C15.6345 27.8536 15.4216 27.8112 15.2229 27.7288C15.0243 27.6465 14.8438 27.5258 14.6918 27.3736C14.5397 27.2217 14.419 27.0412 14.3366 26.8425C14.2543 26.6439 14.2119 26.431 14.2119 26.2159C14.2119 26.0009 14.2543 25.7879 14.3366 25.5893C14.419 25.3906 14.5397 25.2102 14.6918 25.0582L14.7409 25.0091C14.9295 24.8163 15.0561 24.5714 15.1042 24.3059C15.1523 24.0405 15.1198 23.7668 15.0109 23.52C14.9072 23.278 14.735 23.0716 14.5155 22.9263C14.296 22.7809 14.0387 22.7029 13.7755 22.7018H13.6364C13.2024 22.7018 12.7862 22.5294 12.4793 22.2225C12.1724 21.9157 12 21.4994 12 21.0655C12 20.6315 12.1724 20.2152 12.4793 19.9084C12.7862 19.6015 13.2024 19.4291 13.6364 19.4291H13.71C13.9808 19.4228 14.2435 19.3351 14.4638 19.1775C14.6841 19.0199 14.8519 18.7997 14.9455 18.5455C15.0544 18.2987 15.0869 18.0249 15.0387 17.7595C14.9906 17.4941 14.8641 17.2492 14.6755 17.0564L14.6264 17.0073C14.4742 16.8553 14.3535 16.6748 14.2712 16.4762C14.1888 16.2775 14.1464 16.0646 14.1464 15.8495C14.1464 15.6345 14.1888 15.4216 14.2712 15.2229C14.3535 15.0243 14.4742 14.8438 14.6264 14.6918C14.7783 14.5397 14.9588 14.419 15.1575 14.3366C15.3561 14.2543 15.569 14.2119 15.7841 14.2119C15.9991 14.2119 16.2121 14.2543 16.4107 14.3366C16.6094 14.419 16.7898 14.5397 16.9418 14.6918L16.9909 14.7409C17.1837 14.9295 17.4286 15.0561 17.6941 15.1042C17.9595 15.1523 18.2332 15.1198 18.48 15.0109H18.5455C18.7874 14.9072 18.9938 14.735 19.1392 14.5155C19.2846 14.296 19.3626 14.0387 19.3636 13.7755V13.6364C19.3636 13.2024 19.536 12.7862 19.8429 12.4793C20.1498 12.1724 20.566 12 21 12C21.434 12 21.8502 12.1724 22.1571 12.4793C22.464 12.7862 22.6364 13.2024 22.6364 13.6364V13.71C22.6374 13.9733 22.7154 14.2305 22.8608 14.45C23.0062 14.6695 23.2126 14.8417 23.4545 14.9455C23.7013 15.0544 23.9751 15.0869 24.2405 15.0387C24.5059 14.9906 24.7508 14.8641 24.9436 14.6755L24.9927 14.6264C25.1447 14.4742 25.3252 14.3535 25.5238 14.2712C25.7225 14.1888 25.9354 14.1464 26.1505 14.1464C26.3655 14.1464 26.5784 14.1888 26.7771 14.2712C26.9757 14.3535 27.1562 14.4742 27.3082 14.6264C27.4603 14.7783 27.581 14.9588 27.6634 15.1575C27.7457 15.3561 27.7881 15.569 27.7881 15.7841C27.7881 15.9991 27.7457 16.2121 27.6634 16.4107C27.581 16.6094 27.4603 16.7898 27.3082 16.9418L27.2591 16.9909C27.0705 17.1837 26.9439 17.4286 26.8958 17.6941C26.8477 17.9595 26.8802 18.2332 26.9891 18.48V18.5455C27.0928 18.7874 27.265 18.9938 27.4845 19.1392C27.704 19.2846 27.9613 19.3626 28.2245 19.3636H28.3636C28.7976 19.3636 29.2138 19.536 29.5207 19.8429C29.8276 20.1498 30 20.566 30 21C30 21.434 29.8276 21.8502 29.5207 22.1571C29.2138 22.464 28.7976 22.6364 28.3636 22.6364H28.29C28.0267 22.6374 27.7695 22.7154 27.55 22.8608C27.3305 23.0062 27.1583 23.2126 27.0545 23.4545Z" stroke="#0066FF" stroke-width="1.3" stroke-linecap="round" stroke-linejoin="round"/>
</svg>
