<svg width="25" height="22" viewBox="0 0 25 22" fill="none" xmlns="http://www.w3.org/2000/svg">
<path d="M10.5996 0.150391H14.4004C15.8865 0.150566 17.1757 1.15096 17.4717 2.55469C17.5132 2.75142 17.6216 2.92816 17.7783 3.05664C17.9349 3.18505 18.1313 3.25782 18.335 3.26465H18.3711C19.9981 3.33441 21.2175 3.52786 22.2285 4.17188C22.8716 4.58125 23.4252 5.10755 23.8555 5.72168C24.3848 6.47532 24.6224 7.34708 24.7373 8.42188C24.8502 9.47595 24.8496 10.7994 24.8496 12.4902V12.5859C24.8496 14.2768 24.8502 15.6014 24.7373 16.6543C24.6224 17.729 24.3847 18.6007 23.8555 19.3555C23.4226 19.9695 22.8698 20.4962 22.2285 20.9053C21.4395 21.4073 20.5281 21.6338 19.4023 21.7422H19.4014C18.2965 21.8496 16.9087 21.8496 15.1318 21.8496H9.86816C8.09133 21.8496 6.70353 21.8496 5.59863 21.7422H5.59766C4.47171 21.6338 3.56041 21.4083 2.77148 20.9053C2.13014 20.4958 1.57732 19.9689 1.14453 19.3545H1.14355C0.614553 18.601 0.377582 17.7289 0.262695 16.6543C0.149805 15.6014 0.150391 14.2768 0.150391 12.5859V12.4902C0.150391 10.7994 0.149794 9.47595 0.262695 8.42188C0.363286 7.48123 0.558188 6.69629 0.959961 6.00977L1.14453 5.72168C1.57734 5.10723 2.13011 4.58034 2.77148 4.1709C3.78239 3.52803 5.00127 3.33427 6.62793 3.26562H6.63086L6.65039 3.26465H6.66504C6.86865 3.25782 7.06509 3.18505 7.22168 3.05664C7.33911 2.96034 7.42903 2.83682 7.48438 2.69824L7.52832 2.55469C7.82317 1.15109 9.11339 0.150566 10.5996 0.150391ZM10.5996 1.54199C9.78945 1.54217 9.10066 2.08737 8.94434 2.83008C8.74518 3.78136 7.91429 4.5468 6.8877 4.64648L6.67969 4.65723H6.6748C5.10348 4.72509 4.2297 4.91219 3.56641 5.33398H3.56543C3.08364 5.64202 2.66823 6.03856 2.3418 6.50098H2.34082C2.04208 6.92631 1.85413 7.44998 1.74219 8.21973L1.69824 8.56543C1.5949 9.5409 1.59375 10.796 1.59375 12.5391C1.59375 14.2819 1.59349 15.536 1.69922 16.5117C1.80174 17.4753 2.00018 18.089 2.34277 18.5762C2.66584 19.037 3.08128 19.4348 3.56738 19.7441C4.08035 20.0699 4.72783 20.2593 5.74219 20.3574C6.76731 20.4564 8.08542 20.458 9.91602 20.458H15.084C16.9133 20.458 18.2314 20.4576 19.2578 20.3574C20.2718 20.2593 20.9195 20.0712 21.4326 19.7441C21.8579 19.4735 22.2303 19.135 22.5332 18.7451L22.6592 18.5752C23.0005 18.0892 23.1981 17.4752 23.3018 16.5117C23.4051 15.5363 23.4062 14.281 23.4062 12.5391C23.4062 10.7975 23.4065 9.5411 23.3008 8.56543C23.1983 7.60168 23 6.9872 22.6572 6.50098C22.3309 6.03818 21.9154 5.64138 21.4336 5.33301H21.4326C20.7716 4.91223 19.8978 4.7251 18.3242 4.65723H18.3193C17.1995 4.64662 16.2681 3.84567 16.0557 2.83008V2.82812C15.9734 2.45985 15.7629 2.13134 15.4609 1.89746C15.1594 1.66396 14.7849 1.53852 14.4004 1.54199H10.5996ZM12.5 8.04785C13.618 8.04785 14.6892 8.47847 15.4785 9.24414C16.2676 10.0097 16.7109 11.0472 16.7109 12.1279C16.7109 13.2087 16.2676 14.2461 15.4785 15.0117C14.6892 15.7775 13.6181 16.209 12.5 16.209C11.3819 16.209 10.3108 15.7775 9.52148 15.0117C8.73237 14.2461 8.28906 13.2087 8.28906 12.1279C8.28914 11.0472 8.73241 10.0097 9.52148 9.24414C10.3108 8.47847 11.382 8.04785 12.5 8.04785ZM12.5 9.43945C11.7679 9.43945 11.065 9.72203 10.5459 10.2256C10.0267 10.7293 9.73347 11.4135 9.7334 12.1279C9.7334 12.8424 10.0266 13.5274 10.5459 14.0312C11.065 14.5347 11.768 14.8164 12.5 14.8164C13.232 14.8164 13.935 14.5347 14.4541 14.0312C14.9734 13.5274 15.2666 12.8424 15.2666 12.1279C15.2665 11.4135 14.9733 10.7293 14.4541 10.2256C13.935 9.72203 13.2321 9.43945 12.5 9.43945ZM19.4766 8.04785H20.6396C20.8325 8.04788 21.0163 8.12199 21.1514 8.25293C21.2862 8.38376 21.3612 8.56017 21.3613 8.74316C21.3613 8.92631 21.2863 9.10345 21.1514 9.23438C21.0163 9.36527 20.8324 9.43942 20.6396 9.43945H19.4766C19.2838 9.43941 19.0999 9.36528 18.9648 9.23438C18.8299 9.10345 18.7549 8.92631 18.7549 8.74316C18.755 8.56017 18.83 8.38376 18.9648 8.25293C19.0999 8.12199 19.2838 8.0479 19.4766 8.04785Z" fill="#243750" stroke="#F7F7F7" stroke-width="0.3"/>
</svg>
