<svg width="15" height="18" viewBox="0 0 15 18" fill="none" xmlns="http://www.w3.org/2000/svg">
<path d="M0.535614 5.51958V3.306C0.535614 1.77561 1.78921 0.535614 3.33561 0.535614C4.88201 0.535614 6.13561 1.77561 6.13561 3.3052V6.35078C6.13467 6.53364 6.09771 6.71453 6.02683 6.88311C5.95595 7.05168 5.85255 7.20464 5.72254 7.33324C5.59253 7.46184 5.43845 7.56357 5.26911 7.6326C5.09977 7.70163 4.91848 7.73662 4.73561 7.73557C4.55281 7.73662 4.3716 7.70166 4.20231 7.63268C4.03302 7.56369 3.87897 7.46204 3.74897 7.33353C3.61897 7.20501 3.51555 7.05215 3.44463 6.88366C3.37371 6.71518 3.33666 6.53438 3.33561 6.35158V3.3044" stroke="#243750" stroke-width="1.07124" stroke-linecap="round" stroke-linejoin="round"/>
<path d="M7.73561 0.535614H7.95401C10.562 0.535614 11.8676 0.535614 12.7732 1.17401C13.0324 1.35641 13.2628 1.57401 13.4572 1.81801C14.1356 2.6708 14.1356 3.89799 14.1356 6.35398V8.38996C14.1356 10.7603 14.1356 11.9459 13.7604 12.8923C13.1572 14.4147 11.882 15.6147 10.2644 16.1827C9.25881 16.5355 8.00041 16.5355 5.48041 16.5355C4.04201 16.5355 3.32201 16.5355 2.74761 16.3339C1.82361 16.0091 1.09481 15.3235 0.750014 14.4539C0.535614 13.9131 0.535614 13.2355 0.535614 11.8811V8.53556" stroke="#243750" stroke-width="1.07124" stroke-linecap="round" stroke-linejoin="round"/>
<path d="M14.1344 8.53561C14.1344 9.24278 13.8535 9.92099 13.3535 10.421C12.8534 10.9211 12.1752 11.202 11.468 11.202C10.9352 11.202 10.3072 11.1092 9.78963 11.2476C9.56356 11.3084 9.35743 11.4275 9.1919 11.5931C9.02636 11.7586 8.90723 11.9647 8.84643 12.1908C8.70803 12.7084 8.80083 13.3364 8.80083 13.8692C8.80083 14.2193 8.73186 14.5661 8.59786 14.8896C8.46386 15.2131 8.26746 15.507 8.01986 15.7546C7.77226 16.0022 7.47832 16.1986 7.15482 16.3326C6.83131 16.4666 6.48459 16.5356 6.13443 16.5356" stroke="#243750" stroke-width="1.07124" stroke-linecap="round" stroke-linejoin="round"/>
</svg>
