<svg width="40" height="30" viewBox="0 0 40 30" fill="none" xmlns="http://www.w3.org/2000/svg">
<path d="M3.83338 20.0195C5.53005 21.948 6.0334 21.948 6.09561 21.7557C6.23134 23.82 6.58198 26.3763 8.07505 27.7619C1.71255 28.9552 0.0611286 23.7408 0.00457302 22.1347C-0.119849 19.6576 2.32335 18.4133 3.83338 20.0195Z" fill="#243750"/>
<path d="M3.3721 20.9983C5.00656 23.0626 5.90013 23.1587 6.25643 22.9495C6.49962 25.5623 6.986 26.4728 7.38755 27.0271C3.2194 27.6775 1.0307 23.6055 1.0307 22.1351C1.03636 19.8276 2.85745 20.3423 3.3721 20.9983Z" fill="#FBFCFF"/>
<path d="M35.533 20.0197C33.8364 21.9482 33.2256 21.9482 33.1747 21.7559C33.0389 23.8202 32.3603 27.2135 31.297 27.7621C37.6539 28.9554 39.2827 23.741 39.3675 22.1348C39.4919 19.6577 37.0544 18.4135 35.533 20.0197Z" fill="#243750"/>
<path d="M36.0765 20.9983C34.4477 23.0626 33.5485 23.1587 33.1979 22.9495C32.949 25.5623 32.4626 26.4728 32.0667 27.0271C36.2405 27.6775 38.4236 23.6055 38.4236 22.1351C38.4123 19.8276 36.5912 20.3423 36.0765 20.9983Z" fill="#FBFCFF"/>
<path d="M30.3319 20.8066C32.0286 19.6416 33.0805 20.7501 33.1597 22.0282C33.2615 23.6853 33.1258 26.5526 31.3443 28.0287C29.8286 29.3634 27.951 29.6349 24.3653 28.7922C22.9346 29.5839 21.3262 29.9993 19.691 29.9993C18.0558 29.9993 16.4474 29.5839 15.0167 28.7922C11.6234 29.7989 9.36114 29.1259 8.03774 28.0287C6.43722 26.7053 5.94519 24.1999 6.04133 22.0282C6.13748 19.8565 8.47888 20.2071 9.05009 20.8066C12.2964 20.3089 11.3915 18.7141 10.6959 17.3285C3.64338 3.31413 13.8177 0 19.6938 0C34.4605 0 31.7967 11.9614 28.6862 17.3285C26.5653 20.5295 28.9067 20.2637 30.3319 20.8066Z" fill="#243750"/>
<path d="M27.6878 28.3858C24.9109 28.3858 23.1011 26.8023 21.9191 24.5571C20.3921 21.6558 19.0914 21.5596 17.4569 24.5571C16.535 26.2537 14.6574 28.3858 11.6882 28.3858C8.47022 28.3858 7.87639 26.3216 7.49747 24.9077C6.36636 20.6152 8.4476 21.8311 8.83218 23.2111C9.13192 24.3422 9.83887 25.2075 10.5967 25.2075C11.3546 25.2075 12.1916 24.7267 12.6949 22.4815C11.3093 23.3977 10.1386 24.5344 9.67486 22.736C14.7649 22.1309 12.7854 18.5905 12.0615 17.3406C4.74887 4.72887 14.2785 1.22245 19.6852 1.22245C33.2811 1.22245 31.166 12.0471 27.3145 17.3633C24.6451 21.7406 28.3495 22.1874 29.6786 22.6964C29.2714 24.0141 28.423 24.1781 26.6811 22.5041C26.8734 23.4769 27.4163 25.1226 28.7793 25.1226C29.2523 25.0617 29.6905 24.8413 30.0216 24.4979C30.3526 24.1546 30.5567 23.7086 30.6004 23.2337C30.9567 21.1807 33.3207 20.5643 31.8786 24.9303C31.1207 27.1925 29.7577 28.3858 27.6878 28.3858Z" fill="#FBFCFF"/>
<path d="M21.5112 29.0479C20.3456 29.3241 19.134 29.3453 17.9595 29.1101C16.8284 28.8895 16.7266 27.487 17.3939 26.5651C17.959 25.7445 18.4438 24.8714 18.8417 23.9579C19.4073 22.9286 19.9729 22.8721 20.578 23.9579C20.8891 24.5235 21.5508 25.5867 22.2238 26.5482C22.8968 27.5096 22.5631 28.799 21.5112 29.0479Z" fill="#FBFCFF"/>
</svg>
